<?xml version="1.0" encoding="UTF-8" standalone="no"?>
<!-- Created with Inkscape (http://www.inkscape.org/) -->

<svg
   xmlns:dc="http://purl.org/dc/elements/1.1/"
   xmlns:cc="http://creativecommons.org/ns#"
   xmlns:rdf="http://www.w3.org/1999/02/22-rdf-syntax-ns#"
   xmlns:svg="http://www.w3.org/2000/svg"
   xmlns="http://www.w3.org/2000/svg"
   xmlns:xlink="http://www.w3.org/1999/xlink"
   xmlns:sodipodi="http://sodipodi.sourceforge.net/DTD/sodipodi-0.dtd"
   xmlns:inkscape="http://www.inkscape.org/namespaces/inkscape"
   width="538.58264"
   height="372.04724"
   id="svg2"
   version="1.1"
   inkscape:version="0.47 r22583"
   sodipodi:docname="ch04dia1.svg"
   inkscape:export-filename="/home/subbbfr/Bureau/svnbook/src/fr/book/images/ch04dia1.png"
   inkscape:export-xdpi="150"
   inkscape:export-ydpi="150">
  <defs
     id="defs4">
    <inkscape:perspective
       sodipodi:type="inkscape:persp3d"
       inkscape:vp_x="0 : 186.02362 : 1"
       inkscape:vp_y="0 : 1000 : 0"
       inkscape:vp_z="531.49603 : 186.02362 : 1"
       inkscape:persp3d-origin="265.74802 : 124.01575 : 1"
       id="perspective49" />
    <linearGradient
       id="linearGradient5695">
      <stop
         style="stop-color:#00ff00;stop-opacity:0"
         offset="0"
         id="stop5697" />
      <stop
         style="stop-color:#00ff00;stop-opacity:1"
         offset="1"
         id="stop5699" />
    </linearGradient>
    <marker
       inkscape:stockid="Arrow2Lend"
       orient="auto"
       refY="0"
       refX="0"
       id="Arrow2Lend"
       style="overflow:visible">
      <path
         id="path5498"
         style="font-size:12px;fill-rule:evenodd;stroke-width:0.625;stroke-linejoin:round"
         d="M 8.7185878,4.0337352 -2.2072895,0.01601326 8.7185884,-4.0017078 c -1.7454984,2.3720609 -1.7354408,5.6174519 -6e-7,8.035443 z"
         transform="matrix(-1.1,0,0,-1.1,-1.1,0)" />
    </marker>
    <linearGradient
       inkscape:collect="always"
       xlink:href="#linearGradient5695"
       id="linearGradient3041"
       gradientUnits="userSpaceOnUse"
       gradientTransform="matrix(2.603531,0,0,1.2135303,336.45617,772.85902)"
       x1="15.4375"
       y1="56.84375"
       x2="215.9375"
       y2="56.84375" />
    <linearGradient
       inkscape:collect="always"
       xlink:href="#linearGradient5695"
       id="linearGradient2889"
       gradientUnits="userSpaceOnUse"
       gradientTransform="matrix(2.603531,0,0,1.2135303,336.45617,772.85902)"
       x1="15.4375"
       y1="56.84375"
       x2="215.9375"
       y2="56.84375" />
  </defs>
  <sodipodi:namedview
     id="base"
     pagecolor="#ffffff"
     bordercolor="#666666"
     borderopacity="1.0"
     inkscape:pageopacity="0.0"
     inkscape:pageshadow="2"
     inkscape:zoom="1.324639"
     inkscape:cx="167.31164"
     inkscape:cy="143.8598"
     inkscape:document-units="px"
     inkscape:current-layer="layer1"
     showgrid="false"
     inkscape:window-width="1280"
     inkscape:window-height="952"
     inkscape:window-x="0"
     inkscape:window-y="24"
     inkscape:window-maximized="1"
     units="mm"
     width="148mm" />
  <metadata
     id="metadata7">
    <rdf:RDF>
      <cc:Work
         rdf:about="">
        <dc:format>image/svg+xml</dc:format>
        <dc:type
           rdf:resource="http://purl.org/dc/dcmitype/StillImage" />
        <dc:title></dc:title>
        <cc:license
           rdf:resource="http://creativecommons.org/licenses/by/3.0/" />
      </cc:Work>
      <cc:License
         rdf:about="http://creativecommons.org/licenses/by/3.0/">
        <cc:permits
           rdf:resource="http://creativecommons.org/ns#Reproduction" />
        <cc:permits
           rdf:resource="http://creativecommons.org/ns#Distribution" />
        <cc:requires
           rdf:resource="http://creativecommons.org/ns#Notice" />
        <cc:requires
           rdf:resource="http://creativecommons.org/ns#Attribution" />
        <cc:permits
           rdf:resource="http://creativecommons.org/ns#DerivativeWorks" />
      </cc:License>
    </rdf:RDF>
  </metadata>
  <g
     inkscape:label="Calque 1"
     inkscape:groupmode="layer"
     id="layer1"
     transform="translate(-367.97403,-511.16221)">
    <g
       id="g5376" />
    <g
       id="g2854"
       transform="translate(7.6230405e-6,-2.9622908e-6)">
      <path
         id="rect5389-3-6-2-4-5"
         d="m 845.28378,807.5584 0,14.18313 -468.63561,0 0,40.19819 468.63561,0 0,14.18312 53.37239,-32.2723 -53.37239,-36.29214 z"
         style="fill:url(#linearGradient2889);fill-opacity:1;stroke:none" />
      <rect
         y="597.0285"
         x="652.38165"
         height="60.061611"
         width="1.8512775"
         id="rect5389-0-17"
         style="fill:#000000;fill-opacity:1;stroke:none" />
      <rect
         transform="matrix(0,1,-1,0,0,0)"
         y="-896.33459"
         x="597.05243"
         height="243.17754"
         width="1.2087191"
         id="rect5389-3-6-71"
         style="fill:#000000;fill-opacity:1;stroke:#c5bfe0;stroke-width:0.64255846;stroke-linejoin:round;stroke-miterlimit:4;stroke-opacity:0.47252748;stroke-dasharray:none;stroke-dashoffset:1.15511814" />
      <path
         id="path6895-58"
         d="m 886.46626,592.8246 11.93863,5.11655 -11.93863,4.54806 0,-9.66461 z"
         style="fill:#000000;fill-opacity:1;stroke:#000000;stroke-width:0.50204426px;stroke-linecap:butt;stroke-linejoin:miter;stroke-opacity:1" />
      <rect
         y="657.60736"
         x="687.83521"
         height="60.061611"
         width="1.8512775"
         id="rect5389-0-17-3"
         style="fill:#000000;fill-opacity:1;stroke:none" />
      <rect
         y="537.80713"
         x="757.4563"
         height="60.061611"
         width="1.8512775"
         id="rect5389-0-17-0"
         style="fill:#000000;fill-opacity:1;stroke:none" />
      <rect
         transform="matrix(0,1,-1,0,0,0)"
         y="-896.35382"
         x="716.44354"
         height="208.38449"
         width="1.2470922"
         id="rect5389-3-6-71-8"
         style="fill:#000000;fill-opacity:1;stroke:#c5bfe0;stroke-width:0.60418534;stroke-linejoin:round;stroke-miterlimit:4;stroke-opacity:0.47252748;stroke-dasharray:none;stroke-dashoffset:1.15511814" />
      <path
         id="path6895-58-5"
         d="m 886.46626,712.23489 11.93863,5.11655 -11.93863,4.54806 0,-9.66461 z"
         style="fill:#000000;fill-opacity:1;stroke:#000000;stroke-width:0.50204426px;stroke-linecap:butt;stroke-linejoin:miter;stroke-opacity:1" />
      <rect
         transform="matrix(0,1,-1,0,0,0)"
         y="-887.78204"
         x="656.76331"
         height="512.29681"
         width="1.0020918"
         id="rect5389-3-6-71-8-8"
         style="fill:#000000;fill-opacity:1;stroke:#c5bfe0;stroke-width:0.84918588;stroke-linejoin:round;stroke-miterlimit:4;stroke-opacity:0.47252748;stroke-dasharray:none;stroke-dashoffset:1.15511814" />
      <path
         id="path6895-58-5-2"
         d="m 886.46626,652.43205 11.93863,5.11655 -11.93863,4.54806 0,-9.66461 z"
         style="fill:#000000;fill-opacity:1;stroke:#000000;stroke-width:0.50204426px;stroke-linecap:butt;stroke-linejoin:miter;stroke-opacity:1" />
      <rect
         transform="matrix(0,1,-1,0,0,0)"
         y="-896.40027"
         x="537.75525"
         height="138.81459"
         width="1.3400974"
         id="rect5389-3-6-71-8-0"
         style="fill:#000000;fill-opacity:1;stroke:#c5bfe0;stroke-width:0.5111801;stroke-linejoin:round;stroke-miterlimit:4;stroke-opacity:0.47252748;stroke-dasharray:none;stroke-dashoffset:1.15511814" />
      <path
         id="path6895-58-5-6"
         d="m 886.46626,533.59303 11.93863,5.11654 -11.93863,4.54807 0,-9.66461 z"
         style="fill:#000000;fill-opacity:1;stroke:#000000;stroke-width:0.50204426px;stroke-linecap:butt;stroke-linejoin:miter;stroke-opacity:1" />
      <text
         id="text5688-5"
         y="652.86145"
         x="382.80304"
         style="font-size:27.75521088px;font-style:normal;font-weight:normal;fill:#000000;fill-opacity:1;stroke:none;font-family:Bitstream Vera Sans"
         xml:space="preserve"><tspan
           style="font-size:16px"
           id="tspan3114"
           y="652.86145"
           x="382.80304"
           sodipodi:role="line">Ligne de développement initiale</tspan></text>
      <text
         id="text5688-5-9"
         y="534.10144"
         x="757.02008"
         style="font-size:27.75521088px;font-style:normal;font-weight:normal;fill:#000000;fill-opacity:1;stroke:none;font-family:Bitstream Vera Sans"
         xml:space="preserve"><tspan
           style="font-size:16px"
           id="tspan3114-7"
           y="534.10144"
           x="757.02008"
           sodipodi:role="line">3e branche</tspan></text>
      <text
         id="text5688-5-9-9"
         y="592.35602"
         x="651.79279"
         style="font-size:27.75521088px;font-style:normal;font-weight:normal;fill:#000000;fill-opacity:1;stroke:none;font-family:Bitstream Vera Sans"
         xml:space="preserve"><tspan
           style="font-size:16px"
           id="tspan3114-7-3"
           y="592.35602"
           x="651.79279"
           sodipodi:role="line">1re branche</tspan></text>
      <text
         id="text5688-5-9-8"
         y="732.61365"
         x="686.62225"
         style="font-size:16px;font-style:normal;font-weight:normal;fill:#000000;fill-opacity:1;stroke:none;font-family:Bitstream Vera Sans"
         xml:space="preserve"><tspan
           id="tspan3114-7-7"
           y="732.61365"
           x="686.62225"
           sodipodi:role="line">2e branche</tspan></text>
      <g
         transform="matrix(0.14353895,0,0,0.08056115,457.08905,821.68132)"
         inkscape:label="Calque 1"
         id="layer1-0">
        <g
           id="g4026"
           style="fill:#000000;fill-opacity:0.41779001;fill-rule:nonzero;stroke:#000000;stroke-opacity:1"
           transform="matrix(0.940559,0.166725,-0.154489,0.965491,238.345,-250.082)">
          <path
             transform="translate(-84.0071,26.8968)"
             sodipodi:nodetypes="csccsssccccccccsccccccccssssccssssccccsccccc"
             id="path4028"
             d="M 129.5,251.96875 C 93.528564,252.83932 64.78125,271.79806 64.78125,293 c 1e-5,15.6168 12.69592,29.09488 33.65625,35.4375 5.83362,11.3115 19.389,24.29388 18.59375,35.53125 -73.651293,2.04756 -155.40626,77.46711 -155.40625,172.90625 10e-7,95.43915 77.467117,172.87502 172.90625,172.875 95.43914,10e-6 172.87502,-77.43586 172.875,-172.875 0,-56.59242 -27.34539,-102.90068 -62.21997,-134.47998 0.18886,-0.1706 0.36246,-0.36324 0.53125,-0.5625 l 5.25,-6.21875 1.375,1.09375 c 2.0363,1.66169 4.79194,1.62184 6.21875,-0.0625 l 3.59375,-4.21875 c 1.42679,-1.68435 0.94258,-4.36956 -1.09375,-6.03125 l -17.1875,-14.03125 c -0.0955,-0.0779 -0.18269,-0.14825 -0.28125,-0.21875 -2.00361,-1.43372 -4.60883,-1.35537 -5.96875,0.25 l -3.59375,4.25 c -1.42681,1.68438 -0.94256,4.36957 1.09375,6.03125 l 1.84375,1.5 -5.28125,6.21875 c -0.41402,0.48876 2.11214,3.2654 -0.9375,1.5625 C 206.94839,376.54467 174.97829,364.02045 148,363.21875 c -1.49554,-8.5416 10.4239,-23.09148 15.46664,-36 18.87237,-6.75791 35.97086,-19.55623 35.97086,-34.21875 2e-5,-21.70774 -30.14385,-41.03124 -67.3125,-41.03125 -0.58074,0 -1.17275,-0.009 -1.75,0 -0.14206,0.002 -0.29566,-0.003 -0.4375,0 -0.14128,0.003 -0.29644,-0.003 -0.4375,0 z m 0.78125,10.59375 c 0.22308,-0.006 0.46372,0.004 0.6875,0 0.11233,-0.002 0.23125,0.002 0.34375,0 0.45716,-0.007 0.91508,0 1.375,0 29.43484,10e-6 53.3125,13.51829 53.3125,30.15625 1e-5,9.23988 -9.16439,20.17624 -19.82918,25.54793 -2.14709,-3.69774 -10.2488,-9.193 -18.70752,-11.66959 -14.13993,1.32238 -22.94406,0.59344 -36.3383,-0.53459 -8.93269,2.71216 -13.26945,6.22357 -14.71875,10.25 -10.85604,-5.51894 -17.0625,-14.03992 -17.0625,-23.59375 2e-5,-16.18655 22.60678,-29.4502 50.9375,-30.15625 z m -19.15625,43.5 38.03581,1.10042 c 18.07668,-26.79095 -10.81057,-27.06079 -15.59831,-26.35042 -4.27674,-0.95005 -39.83355,-3.84755 -22.4375,25.25 z"
             style="fill:#000000;fill-opacity:0.41779001;fill-rule:nonzero;stroke:none" />
        </g>
        <path
           style="fill:#5e62c6;fill-opacity:1;fill-rule:nonzero;stroke:#221d1d;stroke-width:0.91592002;stroke-linecap:round;stroke-linejoin:round;stroke-miterlimit:4;stroke-opacity:1;stroke-dashoffset:0"
           d="m 319.77635,162.8291 c -1.73511,-1.7033 -4.31541,-2.04704 -5.90868,-0.73535 l -4.20281,3.46009 c -1.67167,1.37624 -1.6215,4.03852 0.10894,5.9654 l 1.55143,1.72753 -6.16952,5.07924 c -2.38805,1.96601 -2.63315,5.41662 -0.54953,7.73673 l 4.39567,4.89468 c 2.08362,2.3201 5.68356,2.60514 8.07159,0.63913 l 6.16955,-5.0792 1.1518,1.28254 c 1.73043,1.92689 4.44858,2.34711 6.12023,0.9709 l 4.20283,-3.46006 c 1.67163,-1.37624 1.64501,-4.01234 -0.0854,-5.93922 l -14.62097,-16.28067 c -0.0811,-0.0903 -0.14973,-0.17798 -0.23508,-0.26174 z"
           id="rect5779" />
        <path
           style="fill:#7974a8;fill-opacity:1;fill-rule:nonzero;stroke:#000000;stroke-width:1.27857995;stroke-linecap:round;stroke-linejoin:round;stroke-miterlimit:4;stroke-opacity:1;stroke-dashoffset:0"
           d="m 223.0524,93.392398 c -3.85229,5.31238 -2.25943,12.235052 5.60495,10.725152 18.87954,1.93238 40.63392,-0.3224 54.32759,-14.374472 8.54661,-8.57815 9.52725,-22.62813 2.69408,-32.59386 -12.64385,-19.30362 -36.18824,-28.93822 -58.54886,-32.23191 -20.99854,-2.6475 -44.7905,-0.23538 -61.02593,14.08289 -10.00644,8.4837 -11.18764,23.84749 -4.07578,34.55329 10.6915,16.69646 30.98498,24.54872 49.99249,27.853912 10.07662,-1.35282 1.97711,-12.131612 -5.15637,-10.529282 -14.58855,-3.80449 -30.88126,-12.15585 -34.5985,-27.72468 -2.75905,-11.09885 6.2695,-20.8485 16.33373,-24.36491 21.28359,-7.95699 45.95164,-4.75065 66.15902,5.10375 10.77034,5.60409 22.63716,14.90992 22.24527,27.9648 -1.26136,13.57219 -15.74592,20.45818 -28.12981,22.09571 -8.54594,1.27116 -17.30213,0.86469 -25.82188,-0.56039 z"
           id="path3133" />
        <path
           style="fill:#6b63c3;fill-opacity:1;fill-rule:nonzero;stroke:#000000;stroke-width:1.27857995;stroke-linecap:round;stroke-linejoin:round;stroke-miterlimit:4;stroke-opacity:1;stroke-dashoffset:0"
           d="m 230.68841,83.607798 c 30.10661,-27.84888 -14.44882,-28.82896 -8.83484,-27.77055 5.61398,1.05842 -42.44441,-13.11869 -20.70785,22.83882 12.96227,3.29327 16.00896,3.95392 30.09796,5.02525 39.10826,18.650602 -8.5639,39.225062 -8.41318,53.201712 C 301.04237,152.41759 366.667,238.10198 351.28366,329.4434 335.90032,420.78482 247.40408,482.1155 153.74737,466.34223 60.090681,450.56897 -3.4355294,363.63531 11.947811,272.29389 27.331151,180.95247 119.72775,122.2939 192.33355,132.50664 c 4.68554,-19.20626 -30.01193,-48.947232 9.36744,-53.737052"
           id="path2257"
           sodipodi:nodetypes="csccccsscc" />
        <path
           transform="matrix(1.02542,0.173911,-0.168428,1.0071,-82.2266,-326.086)"
           d="m 509.32831,562.38336 c 0,87.90446 -71.26064,159.1651 -159.1651,159.1651 -87.90446,0 -159.1651,-71.26064 -159.1651,-159.1651 0,-87.90446 71.26064,-159.1651 159.1651,-159.1651 87.90446,0 159.1651,71.26064 159.1651,159.1651 z"
           sodipodi:ry="159.1651"
           sodipodi:rx="159.1651"
           sodipodi:cy="562.38336"
           sodipodi:cx="350.16321"
           id="path7568"
           style="fill:#e7e9e7;fill-opacity:0.35309999;fill-rule:nonzero;stroke:#686871;stroke-width:1.301;stroke-linecap:round;stroke-linejoin:round;stroke-miterlimit:4;stroke-opacity:1;stroke-dasharray:none;stroke-dashoffset:0"
           sodipodi:type="arc" />
        <path
           id="path1382"
           style="opacity:0.97146702;fill:#e7e9e7;fill-opacity:1;fill-rule:nonzero;stroke:#686871;stroke-width:3.50099993;stroke-linecap:round;stroke-linejoin:round;stroke-miterlimit:4;stroke-opacity:1;stroke-dashoffset:0"
           d="M 331.1427,354.10204 C 302.27579,434.33832 212.07768,475.43559 129.80763,445.83704 47.537571,416.23848 4.1958906,327.09718 33.062801,246.86091 c 28.86691,-80.23627 119.065019,-121.33355 201.335079,-91.735 82.27004,29.59856 125.61173,118.73987 96.74482,198.97613 m -170.3654,73.64105 -4.38128,24.28303 M 52.746101,276.49548 28.008081,272.03211 M 337.47025,327.867 312.73222,323.40363 m -181.18871,-169.05712 8.34722,23.22035 m 87.72567,244.03608 8.34722,23.22036 M 58.434831,344.63427 l -23.65544,8.50361 m 293.656579,-104.80546 -23.65545,8.50362 m -240.703369,-58.39272 18.83907,15.93582 m 200.724639,170.61118 18.83909,15.93582 M 98.578471,399.61385 82.344061,418.80591 M 281.31207,183.257 265.07765,202.44908 m -59.85553,-53.95292 -4.38128,24.28303" />
        <path
           id="path13754"
           style="opacity:0.625;fill:#c3c0c0;fill-opacity:0.61590301;fill-rule:nonzero;stroke:#4f4c4c;stroke-width:3.50099993;stroke-linecap:round;stroke-linejoin:round;stroke-miterlimit:4;stroke-opacity:0.61455503;stroke-dashoffset:2.4507;marker-mid:none;marker-end:none"
           d="m 216.83495,399.07891 c -4.63227,27.75349 -30.91637,46.51854 -58.66986,41.88627 -27.75349,-4.63227 -46.51854,-30.91637 -41.88627,-58.66985 4.63227,-27.7535 30.91637,-46.51855 58.66985,-41.88628 27.7535,4.63227 46.51855,30.91637 41.88628,58.66986 z m -42.84699,-58.83021 -2.45875,14.73116 m 44.23811,44.57918 -14.73114,-2.45874 m -42.44394,43.27783 2.45874,-14.73114 m -44.13213,-41.26987 14.73115,2.45875 m 15.98667,-43.48003 5.96109,13.6937 m 59.24551,14.25372 -13.69371,5.96109 m -12.02567,59.41246 -5.96109,-13.6937 m -59.4895,-10.57574 13.69371,-5.96109 m -8.48297,-45.46816 12.45751,8.23786 m 57.54338,-19.18601 -8.23788,12.45752 m 16.50749,59.36483 -12.45751,-8.23787 m -55.97091,17.55258 8.23788,-12.45751" />
        <path
           id="path17471"
           style="opacity:0.625;fill:#c3c0c0;fill-opacity:0.61590301;fill-rule:nonzero;stroke:#241f1f;stroke-width:5.32200003;stroke-linecap:round;stroke-linejoin:round;stroke-miterlimit:4;stroke-opacity:0.983827;stroke-dasharray:none;stroke-dashoffset:2.4507"
           d="m 174.67369,394.25853 c 0,4.65969 -3.78178,8.44148 -8.44148,8.44148 -4.6597,0 -8.44149,-3.78179 -8.44149,-8.44148 0,-4.6597 3.78179,-8.44149 8.44149,-8.44149 4.6597,0 8.44148,3.78179 8.44148,8.44149 z m -9.09083,-8.4415 -1.29869,-35.71397" />
        <path
           id="path18352"
           style="opacity:0.838315;fill:none;stroke:#060505;stroke-width:7.32200003;stroke-linecap:round;stroke-linejoin:round;stroke-miterlimit:4;stroke-opacity:0.997305;stroke-dasharray:none;stroke-dashoffset:2.4507"
           d="m 195.57556,292.15176 c 5.65551,7.85339 3.87173,18.81713 -3.98166,24.47264 -7.85339,5.65551 -18.81713,3.87173 -24.47265,-3.98167 -5.6555,-7.85339 -3.87172,-18.81712 3.98168,-24.47264 7.85339,-5.65551 18.81712,-3.87173 24.47263,3.98167 z m -24.47265,-3.9817 -75.892509,-105.38634" />
      </g>
      <text
         id="text5688-5-9-8-5"
         y="848.16626"
         x="390.6701"
         style="font-size:16px;font-style:normal;font-weight:normal;fill:#000000;fill-opacity:1;stroke:none;font-family:Bitstream Vera Sans"
         xml:space="preserve"><tspan
           id="tspan3114-7-7-3"
           y="848.16626"
           x="390.6701"
           sodipodi:role="line">Temps</tspan></text>
    </g>
  </g>
</svg>
