<?xml version="1.0" encoding="UTF-8" standalone="no"?>
<!-- Created with Inkscape (http://www.inkscape.org/) -->
<svg
   xmlns:dc="http://purl.org/dc/elements/1.1/"
   xmlns:cc="http://web.resource.org/cc/"
   xmlns:rdf="http://www.w3.org/1999/02/22-rdf-syntax-ns#"
   xmlns:svg="http://www.w3.org/2000/svg"
   xmlns="http://www.w3.org/2000/svg"
   xmlns:sodipodi="http://inkscape.sourceforge.net/DTD/sodipodi-0.dtd"
   xmlns:inkscape="http://www.inkscape.org/namespaces/inkscape"
   version="1.0"
   width="480"
   height="421.979"
   id="svg2"
   sodipodi:version="0.32"
   inkscape:version="0.42+0.43pre1"
   sodipodi:docname="warning.svg"
   sodipodi:docbase="/home/badata/src/other/svn.collab.net/svn/svnbook/trunk/src/nb/book/images"
   inkscape:export-filename="/home/badata/src/other/svn.collab.net/svn/svnbook/trunk/src/nb/book/images/warning.png"
   inkscape:export-xdpi="9"
   inkscape:export-ydpi="9">
  <metadata
     id="metadata12">
    <rdf:RDF>
      <cc:Work
         rdf:about="">
        <dc:format>image/svg+xml</dc:format>
        <dc:type
           rdf:resource="http://purl.org/dc/dcmitype/StillImage" />
      </cc:Work>
    </rdf:RDF>
  </metadata>
  <sodipodi:namedview
     inkscape:window-height="538"
     inkscape:window-width="792"
     inkscape:pageshadow="2"
     inkscape:pageopacity="0.0"
     guidetolerance="10.0"
     gridtolerance="10.0"
     objecttolerance="10.0"
     borderopacity="1.0"
     bordercolor="#666666"
     pagecolor="#ffffff"
     id="base"
     inkscape:zoom="0.64490246"
     inkscape:cx="337.49998"
     inkscape:cy="292.5"
     inkscape:window-x="0"
     inkscape:window-y="0"
     inkscape:current-layer="svg2" />
  <defs
     id="defs4" />
  <g
     id="g1909"
     transform="matrix(0.622086,0.000000,0.000000,0.622086,5.747148,2.117782)">
    <path
       inkscape:label="#path1902"
       style="fill:#404040;fill-opacity:1;fill-rule:evenodd;stroke:#000000;stroke-width:2;opacity:1"
       d="M 97.705759,647.60432 C 86.273259,647.60432 75.709199,641.50514 69.992939,631.60432 C 64.276699,621.70347 64.276699,609.50514 69.992939,599.60432 L 374.56734,72.06599 C 380.2836,62.16516 390.84766,56.06598 402.28015,56.06598 C 413.71266,56.06598 424.27674,62.16516 429.99298,72.06599 L 734.56738,599.60432 C 740.28362,609.50514 740.28362,621.70347 734.56738,631.60432 C 728.85112,641.50513 718.28706,647.60432 706.85456,647.60432 L 97.705759,647.60432 z "
       id="shadow" />
    <path
       id="edge"
       d="M 71.985614,631.52918 C 60.553114,631.52918 49.989054,625.43 44.272794,615.52918 C 38.556554,605.62833 38.556554,593.43 44.272794,583.52918 L 348.84719,55.99085 C 354.56345,46.09002 365.12751,39.99084 376.56,39.99084 C 387.99251,39.99084 398.55659,46.09002 404.27283,55.99085 L 708.84723,583.52918 C 714.56347,593.43 714.56347,605.62833 708.84723,615.52918 C 703.13097,625.42999 692.56691,631.52918 681.13441,631.52918 L 71.985614,631.52918 z "
       style="fill:#ffffff;fill-rule:evenodd;stroke:#000000;stroke-width:2"
       inkscape:label="#path1902" />
    <path
       id="redstripe"
       d="M 71.985614,619.52918 C 64.840294,619.52918 58.237754,615.7172 54.665094,609.52918 C 51.092454,603.34114 51.092454,595.7172 54.665094,589.52918 L 359.23951,61.99086 C 362.81215,55.80282 369.41471,51.99084 376.56,51.99084 C 383.70533,51.99084 390.30787,55.80282 393.88053,61.99086 L 698.45493,589.52918 C 702.02757,595.7172 702.02757,603.34114 698.45493,609.52918 C 694.88227,615.7172 688.27973,619.52918 681.13441,619.52918 L 71.985614,619.52918 z M 141.2677,559.52918 L 376.56,151.99085 L 611.85233,559.52918 L 141.2677,559.52918 z "
       style="fill:#cc0000;fill-rule:evenodd;stroke:none"
       inkscape:label="#path1904" />
  </g>
  <g
     id="exclmark"
     inkscape:label="#g1391">
    <path
       d="M 219.65782,161.4495 C 219.65782,138.29604 260.34218,138.41245 260.34218,161.4495 L 249.67087,283.1691 C 249.67087,292.76109 230.6626,292.78818 230.6626,283.1691 L 219.65782,161.4495 z "
       style="fill:#000000;fill-opacity:1;fill-rule:evenodd;stroke:none;stroke-width:1px;stroke-linecap:butt;stroke-linejoin:miter;stroke-opacity:1"
       id="exclmark.top" />
    <path
       d="M 260.17543,318.01748 C 260.17543,329.16006 251.14258,338.19291 240,338.19291 C 228.85742,338.19291 219.82456,329.16006 219.82456,318.01748 C 219.82456,306.8749 228.85742,297.84204 240,297.84204 C 251.14258,297.84204 260.17543,306.8749 260.17543,318.01748 z "
       style="fill:#000000;fill-opacity:1;fill-rule:nonzero;stroke:none;stroke-width:1;stroke-linecap:round;stroke-linejoin:round;stroke-miterlimit:4;stroke-dasharray:none;stroke-dashoffset:0;stroke-opacity:1"
       id="exclmark.dot" />
  </g>
</svg>
